<?xml version="1.0" standalone="no"?><!DOCTYPE svg PUBLIC "-//W3C//DTD SVG 1.1//EN" "http://www.w3.org/Graphics/SVG/1.1/DTD/svg11.dtd"><svg t="1565766804994" style="width:30px ; height: 30px;" class="icon blue"
                                 viewBox="0 0 1024 1024"
                                 version="1.1" xmlns="http://www.w3.org/2000/svg" p-id="5567" width="200" height="200">
                                <path
                                        d="M590.848 374.784l-37.376 66.56q-12.288 22.528-15.36 28.672a139.776 139.776 0 0 0-9.728-19.456l-43.52-75.776h-29.696L512 470.016h-47.616v19.968h61.44v25.6h-61.44v19.968h61.44v48.128h26.624v-48.128H614.4v-19.968h-61.952v-25.6H614.4v-19.968h-46.592l56.32-95.232z m275.968 220.672H870.4v75.264a80.896 80.896 0 0 1-81.92 80.384H286.208A80.896 80.896 0 0 1 204.8 670.208v-75.264h6.144a89.6 89.6 0 1 0 0-179.2H204.8V329.728a80.896 80.896 0 0 1 81.92-80.384h504.32A80.896 80.896 0 0 1 870.4 329.728v87.04h-6.144a89.6 89.6 0 1 0 0 179.2z"
                                        fill="#FF7F00" p-id="5568" data-spm-anchor-id="a313x.7781069.0.i5"
                                        class="selected"></path>
                            </svg>